<svg width="512" height="512" viewBox="0 0 512 512" fill="none" xmlns="http://www.w3.org/2000/svg">
  <rect width="512" height="512" rx="128" fill="#2ECC71"/>
  <path d="M256 128C185.307 128 128 185.307 128 256C128 326.693 185.307 384 256 384C326.693 384 384 326.693 384 256C384 185.307 326.693 128 256 128ZM256 352C203.019 352 160 308.981 160 256C160 203.019 203.019 160 256 160C308.981 160 352 203.019 352 256C352 308.981 308.981 352 256 352Z" fill="white"/>
  <path d="M256 192C229.49 192 208 213.49 208 240C208 266.51 229.49 288 256 288C282.51 288 304 266.51 304 240C304 213.49 282.51 192 256 192ZM256 256C247.163 256 240 248.837 240 240C240 231.163 247.163 224 256 224C264.837 224 272 231.163 272 240C272 248.837 264.837 256 256 256Z" fill="white"/>
  <path d="M224 320H288V336H224V320Z" fill="white"/>
  <path d="M224 304H288V320H224V304Z" fill="white"/>
</svg> 